<?xml version="1.0" encoding="UTF-8" standalone="no"?>
<!-- Created with Inkscape (http://www.inkscape.org/) -->

<svg
   xmlns:dc="http://purl.org/dc/elements/1.1/"
   xmlns:cc="http://creativecommons.org/ns#"
   xmlns:rdf="http://www.w3.org/1999/02/22-rdf-syntax-ns#"
   xmlns:svg="http://www.w3.org/2000/svg"
   xmlns="http://www.w3.org/2000/svg"
   xmlns:sodipodi="http://sodipodi.sourceforge.net/DTD/sodipodi-0.dtd"
   xmlns:inkscape="http://www.inkscape.org/namespaces/inkscape"
   id="svg4155"
   version="1.1"
   inkscape:version="0.91 r13725"
   xml:space="preserve"
   width="453.75"
   height="340"
   viewBox="0 0 453.75 340"
   sodipodi:docname="back.svg"><metadata
     id="metadata4161"><rdf:RDF><cc:Work
         rdf:about=""><dc:format>image/svg+xml</dc:format><dc:type
           rdf:resource="http://purl.org/dc/dcmitype/StillImage" /><dc:title /></cc:Work></rdf:RDF></metadata><defs
     id="defs4159"><clipPath
       clipPathUnits="userSpaceOnUse"
       id="clipPath4171"><path
         d="M 0,0 363,0 363,272 0,272 0,0 Z"
         id="path4173"
         inkscape:connector-curvature="0" /></clipPath><clipPath
       clipPathUnits="userSpaceOnUse"
       id="clipPath4173"><path
         d="M 0,0 324,0 324,108 0,108 0,0 Z"
         id="path4175"
         inkscape:connector-curvature="0" /></clipPath><clipPath
       clipPathUnits="userSpaceOnUse"
       id="clipPath4185"><path
         d="M 0,0 324,0 324,106 0,106 0,0 Z"
         id="path4187"
         inkscape:connector-curvature="0" /></clipPath><clipPath
       clipPathUnits="userSpaceOnUse"
       id="clipPath4195"><path
         d="m 0,105.297 324,0 L 324,0 0,0 0,105.297 Z"
         id="path4197"
         inkscape:connector-curvature="0" /></clipPath><clipPath
       clipPathUnits="userSpaceOnUse"
       id="clipPath4205"><path
         d="M 8,2 322,2 322,105 8,105 8,2 Z"
         id="path4207"
         inkscape:connector-curvature="0" /></clipPath><clipPath
       clipPathUnits="userSpaceOnUse"
       id="clipPath4217"><path
         d="m 8.207,104.477 312.848,0 0,-102.16 -312.848,0 0,102.16 z"
         id="path4219"
         inkscape:connector-curvature="0" /></clipPath><clipPath
       clipPathUnits="userSpaceOnUse"
       id="clipPath4227"><path
         d="m 8,15 302,0 0,91 -302,0 0,-91 z"
         id="path4229"
         inkscape:connector-curvature="0" /></clipPath><clipPath
       clipPathUnits="userSpaceOnUse"
       id="clipPath4237"><path
         d="m 8.027,105.297 301,0 0,-90 -301,0 0,90 z"
         id="path4239"
         inkscape:connector-curvature="0" /></clipPath><clipPath
       clipPathUnits="userSpaceOnUse"
       id="clipPath4247"><path
         d="m 8,15 301,0 0,90 -301,0 0,-90 z"
         id="path4249"
         inkscape:connector-curvature="0" /></clipPath><clipPath
       clipPathUnits="userSpaceOnUse"
       id="clipPath4257"><path
         d="m 8.207,104.477 300.012,0 0,-89.004 -300.012,0 0,89.004 z"
         id="path4259"
         inkscape:connector-curvature="0" /></clipPath><clipPath
       clipPathUnits="userSpaceOnUse"
       id="clipPath4267"><path
         d="m 8,15 301,0 0,91 -301,0 0,-91 z"
         id="path4269"
         inkscape:connector-curvature="0" /></clipPath><clipPath
       clipPathUnits="userSpaceOnUse"
       id="clipPath4277"><path
         d="m 8.027,105.297 300,0 0,-90 -300,0 0,90 z"
         id="path4279"
         inkscape:connector-curvature="0" /></clipPath><clipPath
       clipPathUnits="userSpaceOnUse"
       id="clipPath4287"><path
         d="m 8,15 300,0 0,90 -300,0 0,-90 z"
         id="path4289"
         inkscape:connector-curvature="0" /></clipPath><clipPath
       clipPathUnits="userSpaceOnUse"
       id="clipPath5628"><path
         d="m 0.434,95.214 323.566,0 0,-95.836 -323.566,0 0,95.836 z"
         id="path5630"
         inkscape:connector-curvature="0" /></clipPath><clipPath
       clipPathUnits="userSpaceOnUse"
       id="clipPath5638"><path
         d="M 0,0 324,0 324,96 0,96 0,0 Z"
         id="path5640"
         inkscape:connector-curvature="0" /></clipPath><clipPath
       clipPathUnits="userSpaceOnUse"
       id="clipPath5648"><path
         d="M 0.434,95.836 324,95.836 324,0 0.434,0 l 0,95.836 z"
         id="path5650"
         inkscape:connector-curvature="0" /></clipPath><clipPath
       clipPathUnits="userSpaceOnUse"
       id="clipPath5658"><path
         d="M 0,0 324,0 324,96 0,96 0,0 Z"
         id="path5660"
         inkscape:connector-curvature="0" /></clipPath><clipPath
       clipPathUnits="userSpaceOnUse"
       id="clipPath5668"><path
         d="M 0.434,95.836 324,95.836 324,0 0.434,0 l 0,95.836 z"
         id="path5670"
         inkscape:connector-curvature="0" /></clipPath><clipPath
       clipPathUnits="userSpaceOnUse"
       id="clipPath5678"><path
         d="M 0,0 324,0 324,96 0,96 0,0 Z"
         id="path5680"
         inkscape:connector-curvature="0" /></clipPath><clipPath
       clipPathUnits="userSpaceOnUse"
       id="clipPath5688"><path
         d="M 0.434,95.836 324,95.836 324,0 0.434,0 l 0,95.836 z"
         id="path5690"
         inkscape:connector-curvature="0" /></clipPath><clipPath
       clipPathUnits="userSpaceOnUse"
       id="clipPath5698"><path
         d="M 0,0 324,0 324,96 0,96 0,0 Z"
         id="path5700"
         inkscape:connector-curvature="0" /></clipPath><clipPath
       clipPathUnits="userSpaceOnUse"
       id="clipPath5710"><path
         d="m 0.434,95.836 321,0 0,-95 -321,0 0,95 z"
         id="path5712"
         inkscape:connector-curvature="0" /></clipPath><clipPath
       clipPathUnits="userSpaceOnUse"
       id="clipPath5720"><path
         d="M 0,1 321,1 321,96 0,96 0,1 Z"
         id="path5722"
         inkscape:connector-curvature="0" /></clipPath><clipPath
       clipPathUnits="userSpaceOnUse"
       id="clipPath5730"><path
         d="m 0.434,95.836 320.348,0 0,-94.582 -320.348,0 0,94.582 z"
         id="path5732"
         inkscape:connector-curvature="0" /></clipPath><clipPath
       clipPathUnits="userSpaceOnUse"
       id="clipPath5740"><path
         d="M 0,0 321,0 321,96 0,96 0,0 Z"
         id="path5742"
         inkscape:connector-curvature="0" /></clipPath><clipPath
       clipPathUnits="userSpaceOnUse"
       id="clipPath5750"><path
         d="m 0.434,95.836 320,0 0,-95 -320,0 0,95 z"
         id="path5752"
         inkscape:connector-curvature="0" /></clipPath><clipPath
       clipPathUnits="userSpaceOnUse"
       id="clipPath5760"><path
         d="M 0,1 320,1 320,96 0,96 0,1 Z"
         id="path5762"
         inkscape:connector-curvature="0" /></clipPath><clipPath
       clipPathUnits="userSpaceOnUse"
       id="clipPath5770"><path
         d="m 0.434,95.836 319.316,0 0,-94.266 -319.316,0 0,94.266 z"
         id="path5772"
         inkscape:connector-curvature="0" /></clipPath><clipPath
       clipPathUnits="userSpaceOnUse"
       id="clipPath5780"><path
         d="M 0,0 321,0 321,96 0,96 0,0 Z"
         id="path5782"
         inkscape:connector-curvature="0" /></clipPath><clipPath
       clipPathUnits="userSpaceOnUse"
       id="clipPath5790"><path
         d="m 0.434,95.836 320,0 0,-95 -320,0 0,95 z"
         id="path5792"
         inkscape:connector-curvature="0" /></clipPath><clipPath
       clipPathUnits="userSpaceOnUse"
       id="clipPath5800"><path
         d="M 0,1 320,1 320,96 0,96 0,1 Z"
         id="path5802"
         inkscape:connector-curvature="0" /></clipPath><clipPath
       clipPathUnits="userSpaceOnUse"
       id="clipPath5810"><path
         d="m 0.434,95.836 319.285,0 0,-94.582 -319.285,0 0,94.582 z"
         id="path5812"
         inkscape:connector-curvature="0" /></clipPath><clipPath
       clipPathUnits="userSpaceOnUse"
       id="clipPath5820"><path
         d="M 0,0 320,0 320,96 0,96 0,0 Z"
         id="path5822"
         inkscape:connector-curvature="0" /></clipPath><clipPath
       clipPathUnits="userSpaceOnUse"
       id="clipPath5830"><path
         d="m 0.434,95.836 319,0 0,-95 -319,0 0,95 z"
         id="path5832"
         inkscape:connector-curvature="0" /></clipPath><clipPath
       clipPathUnits="userSpaceOnUse"
       id="clipPath5840"><path
         d="M 0,1 319,1 319,96 0,96 0,1 Z"
         id="path5842"
         inkscape:connector-curvature="0" /></clipPath><clipPath
       clipPathUnits="userSpaceOnUse"
       id="clipPath5850"><path
         d="m 0.434,95.836 318.457,0 0,-94.078 -318.457,0 0,94.078 z"
         id="path5852"
         inkscape:connector-curvature="0" /></clipPath><clipPath
       clipPathUnits="userSpaceOnUse"
       id="clipPath5860"><path
         d="M 0,0 321,0 321,96 0,96 0,0 Z"
         id="path5862"
         inkscape:connector-curvature="0" /></clipPath><clipPath
       clipPathUnits="userSpaceOnUse"
       id="clipPath5870"><path
         d="m 0.434,95.836 320,0 0,-95 -320,0 0,95 z"
         id="path5872"
         inkscape:connector-curvature="0" /></clipPath><clipPath
       clipPathUnits="userSpaceOnUse"
       id="clipPath5880"><path
         d="M 0,1 320,1 320,96 0,96 0,1 Z"
         id="path5882"
         inkscape:connector-curvature="0" /></clipPath><clipPath
       clipPathUnits="userSpaceOnUse"
       id="clipPath5890"><path
         d="m 0.434,95.836 319.285,0 0,-94.582 -319.285,0 0,94.582 z"
         id="path5892"
         inkscape:connector-curvature="0" /></clipPath><clipPath
       clipPathUnits="userSpaceOnUse"
       id="clipPath5900"><path
         d="M 0,0 320,0 320,96 0,96 0,0 Z"
         id="path5902"
         inkscape:connector-curvature="0" /></clipPath><clipPath
       clipPathUnits="userSpaceOnUse"
       id="clipPath5910"><path
         d="m 0.434,95.836 319,0 0,-95 -319,0 0,95 z"
         id="path5912"
         inkscape:connector-curvature="0" /></clipPath><clipPath
       clipPathUnits="userSpaceOnUse"
       id="clipPath5920"><path
         d="M 0,1 319,1 319,96 0,96 0,1 Z"
         id="path5922"
         inkscape:connector-curvature="0" /></clipPath><clipPath
       clipPathUnits="userSpaceOnUse"
       id="clipPath5930"><path
         d="m 0.434,95.836 318.254,0 0,-94.266 -318.254,0 0,94.266 z"
         id="path5932"
         inkscape:connector-curvature="0" /></clipPath><clipPath
       clipPathUnits="userSpaceOnUse"
       id="clipPath5940"><path
         d="M 0,0 320,0 320,96 0,96 0,0 Z"
         id="path5942"
         inkscape:connector-curvature="0" /></clipPath><clipPath
       clipPathUnits="userSpaceOnUse"
       id="clipPath5950"><path
         d="m 0.434,95.836 319,0 0,-95 -319,0 0,95 z"
         id="path5952"
         inkscape:connector-curvature="0" /></clipPath><clipPath
       clipPathUnits="userSpaceOnUse"
       id="clipPath5960"><path
         d="M 0,1 319,1 319,96 0,96 0,1 Z"
         id="path5962"
         inkscape:connector-curvature="0" /></clipPath><clipPath
       clipPathUnits="userSpaceOnUse"
       id="clipPath5970"><path
         d="m 0.434,95.836 318.227,0 0,-94.582 -318.227,0 0,94.582 z"
         id="path5972"
         inkscape:connector-curvature="0" /></clipPath><clipPath
       clipPathUnits="userSpaceOnUse"
       id="clipPath5980"><path
         d="M 0,1 319,1 319,96 0,96 0,1 Z"
         id="path5982"
         inkscape:connector-curvature="0" /></clipPath><clipPath
       clipPathUnits="userSpaceOnUse"
       id="clipPath5990"><path
         d="m 0.434,95.836 318,0 0,-94 -318,0 0,94 z"
         id="path5992"
         inkscape:connector-curvature="0" /></clipPath><clipPath
       clipPathUnits="userSpaceOnUse"
       id="clipPath6000"><path
         d="M 1,1 319,1 319,97 1,97 1,1 Z"
         id="path6002"
         inkscape:connector-curvature="0" /></clipPath><clipPath
       clipPathUnits="userSpaceOnUse"
       id="clipPath4271"><path
         d="m 0.434,95.214 323.566,0 0,-95.836 -323.566,0 0,95.836 z"
         id="path4273"
         inkscape:connector-curvature="0" /></clipPath><clipPath
       clipPathUnits="userSpaceOnUse"
       id="clipPath4281"><path
         d="M 0,0 324,0 324,96 0,96 0,0 Z"
         id="path4283"
         inkscape:connector-curvature="0" /></clipPath><clipPath
       clipPathUnits="userSpaceOnUse"
       id="clipPath4291"><path
         d="M 0.434,95.836 324,95.836 324,0 0.434,0 l 0,95.836 z"
         id="path4293"
         inkscape:connector-curvature="0" /></clipPath><clipPath
       clipPathUnits="userSpaceOnUse"
       id="clipPath4301"><path
         d="M 0,0 324,0 324,96 0,96 0,0 Z"
         id="path4303"
         inkscape:connector-curvature="0" /></clipPath><clipPath
       clipPathUnits="userSpaceOnUse"
       id="clipPath4311"><path
         d="M 0.434,95.836 324,95.836 324,0 0.434,0 l 0,95.836 z"
         id="path4313"
         inkscape:connector-curvature="0" /></clipPath><clipPath
       clipPathUnits="userSpaceOnUse"
       id="clipPath4321"><path
         d="M 0,0 324,0 324,96 0,96 0,0 Z"
         id="path4323"
         inkscape:connector-curvature="0" /></clipPath><clipPath
       clipPathUnits="userSpaceOnUse"
       id="clipPath4331"><path
         d="M 0.434,95.836 324,95.836 324,0 0.434,0 l 0,95.836 z"
         id="path4333"
         inkscape:connector-curvature="0" /></clipPath><clipPath
       clipPathUnits="userSpaceOnUse"
       id="clipPath4341"><path
         d="M 0,0 324,0 324,96 0,96 0,0 Z"
         id="path4343"
         inkscape:connector-curvature="0" /></clipPath><clipPath
       clipPathUnits="userSpaceOnUse"
       id="clipPath4353"><path
         d="m 0.434,95.836 321,0 0,-95 -321,0 0,95 z"
         id="path4355"
         inkscape:connector-curvature="0" /></clipPath><clipPath
       clipPathUnits="userSpaceOnUse"
       id="clipPath4363"><path
         d="M 0,1 321,1 321,96 0,96 0,1 Z"
         id="path4365"
         inkscape:connector-curvature="0" /></clipPath><clipPath
       clipPathUnits="userSpaceOnUse"
       id="clipPath4373"><path
         d="m 0.434,95.836 320.348,0 0,-94.582 -320.348,0 0,94.582 z"
         id="path4375"
         inkscape:connector-curvature="0" /></clipPath><clipPath
       clipPathUnits="userSpaceOnUse"
       id="clipPath4383"><path
         d="M 0,0 321,0 321,96 0,96 0,0 Z"
         id="path4385"
         inkscape:connector-curvature="0" /></clipPath><clipPath
       clipPathUnits="userSpaceOnUse"
       id="clipPath4393"><path
         d="m 0.434,95.836 320,0 0,-95 -320,0 0,95 z"
         id="path4395"
         inkscape:connector-curvature="0" /></clipPath><clipPath
       clipPathUnits="userSpaceOnUse"
       id="clipPath4403"><path
         d="M 0,1 320,1 320,96 0,96 0,1 Z"
         id="path4405"
         inkscape:connector-curvature="0" /></clipPath><clipPath
       clipPathUnits="userSpaceOnUse"
       id="clipPath4413"><path
         d="m 0.434,95.836 319.316,0 0,-94.266 -319.316,0 0,94.266 z"
         id="path4415"
         inkscape:connector-curvature="0" /></clipPath><clipPath
       clipPathUnits="userSpaceOnUse"
       id="clipPath4423"><path
         d="M 0,0 321,0 321,96 0,96 0,0 Z"
         id="path4425"
         inkscape:connector-curvature="0" /></clipPath><clipPath
       clipPathUnits="userSpaceOnUse"
       id="clipPath4433"><path
         d="m 0.434,95.836 320,0 0,-95 -320,0 0,95 z"
         id="path4435"
         inkscape:connector-curvature="0" /></clipPath><clipPath
       clipPathUnits="userSpaceOnUse"
       id="clipPath4443"><path
         d="M 0,1 320,1 320,96 0,96 0,1 Z"
         id="path4445"
         inkscape:connector-curvature="0" /></clipPath><clipPath
       clipPathUnits="userSpaceOnUse"
       id="clipPath4453"><path
         d="m 0.434,95.836 319.285,0 0,-94.582 -319.285,0 0,94.582 z"
         id="path4455"
         inkscape:connector-curvature="0" /></clipPath><clipPath
       clipPathUnits="userSpaceOnUse"
       id="clipPath4463"><path
         d="M 0,0 320,0 320,96 0,96 0,0 Z"
         id="path4465"
         inkscape:connector-curvature="0" /></clipPath><clipPath
       clipPathUnits="userSpaceOnUse"
       id="clipPath4473"><path
         d="m 0.434,95.836 319,0 0,-95 -319,0 0,95 z"
         id="path4475"
         inkscape:connector-curvature="0" /></clipPath><clipPath
       clipPathUnits="userSpaceOnUse"
       id="clipPath4483"><path
         d="M 0,1 319,1 319,96 0,96 0,1 Z"
         id="path4485"
         inkscape:connector-curvature="0" /></clipPath><clipPath
       clipPathUnits="userSpaceOnUse"
       id="clipPath4493"><path
         d="m 0.434,95.836 318.457,0 0,-94.078 -318.457,0 0,94.078 z"
         id="path4495"
         inkscape:connector-curvature="0" /></clipPath><clipPath
       clipPathUnits="userSpaceOnUse"
       id="clipPath4503"><path
         d="M 0,0 321,0 321,96 0,96 0,0 Z"
         id="path4505"
         inkscape:connector-curvature="0" /></clipPath><clipPath
       clipPathUnits="userSpaceOnUse"
       id="clipPath4513"><path
         d="m 0.434,95.836 320,0 0,-95 -320,0 0,95 z"
         id="path4515"
         inkscape:connector-curvature="0" /></clipPath><clipPath
       clipPathUnits="userSpaceOnUse"
       id="clipPath4523"><path
         d="M 0,1 320,1 320,96 0,96 0,1 Z"
         id="path4525"
         inkscape:connector-curvature="0" /></clipPath><clipPath
       clipPathUnits="userSpaceOnUse"
       id="clipPath4533"><path
         d="m 0.434,95.836 319.285,0 0,-94.582 -319.285,0 0,94.582 z"
         id="path4535"
         inkscape:connector-curvature="0" /></clipPath><clipPath
       clipPathUnits="userSpaceOnUse"
       id="clipPath4543"><path
         d="M 0,0 320,0 320,96 0,96 0,0 Z"
         id="path4545"
         inkscape:connector-curvature="0" /></clipPath><clipPath
       clipPathUnits="userSpaceOnUse"
       id="clipPath4553"><path
         d="m 0.434,95.836 319,0 0,-95 -319,0 0,95 z"
         id="path4555"
         inkscape:connector-curvature="0" /></clipPath><clipPath
       clipPathUnits="userSpaceOnUse"
       id="clipPath4563"><path
         d="M 0,1 319,1 319,96 0,96 0,1 Z"
         id="path4565"
         inkscape:connector-curvature="0" /></clipPath><clipPath
       clipPathUnits="userSpaceOnUse"
       id="clipPath4573"><path
         d="m 0.434,95.836 318.254,0 0,-94.266 -318.254,0 0,94.266 z"
         id="path4575"
         inkscape:connector-curvature="0" /></clipPath><clipPath
       clipPathUnits="userSpaceOnUse"
       id="clipPath4583"><path
         d="M 0,0 320,0 320,96 0,96 0,0 Z"
         id="path4585"
         inkscape:connector-curvature="0" /></clipPath><clipPath
       clipPathUnits="userSpaceOnUse"
       id="clipPath4593"><path
         d="m 0.434,95.836 319,0 0,-95 -319,0 0,95 z"
         id="path4595"
         inkscape:connector-curvature="0" /></clipPath><clipPath
       clipPathUnits="userSpaceOnUse"
       id="clipPath4603"><path
         d="M 0,1 319,1 319,96 0,96 0,1 Z"
         id="path4605"
         inkscape:connector-curvature="0" /></clipPath><clipPath
       clipPathUnits="userSpaceOnUse"
       id="clipPath4613"><path
         d="m 0.434,95.836 318.227,0 0,-94.582 -318.227,0 0,94.582 z"
         id="path4615"
         inkscape:connector-curvature="0" /></clipPath><clipPath
       clipPathUnits="userSpaceOnUse"
       id="clipPath4623"><path
         d="M 0,1 319,1 319,96 0,96 0,1 Z"
         id="path4625"
         inkscape:connector-curvature="0" /></clipPath><clipPath
       clipPathUnits="userSpaceOnUse"
       id="clipPath4633"><path
         d="m 0.434,95.836 318,0 0,-94 -318,0 0,94 z"
         id="path4635"
         inkscape:connector-curvature="0" /></clipPath><clipPath
       clipPathUnits="userSpaceOnUse"
       id="clipPath4643"><path
         d="M 1,1 319,1 319,97 1,97 1,1 Z"
         id="path4645"
         inkscape:connector-curvature="0" /></clipPath></defs><sodipodi:namedview
     pagecolor="#ffffff"
     bordercolor="#666666"
     borderopacity="1"
     objecttolerance="10"
     gridtolerance="10"
     guidetolerance="10"
     inkscape:pageopacity="0"
     inkscape:pageshadow="2"
     inkscape:window-width="1863"
     inkscape:window-height="1059"
     id="namedview4157"
     showgrid="false"
     inkscape:zoom="2.0255771"
     inkscape:cx="91.573629"
     inkscape:cy="170.82456"
     inkscape:window-x="57"
     inkscape:window-y="21"
     inkscape:window-maximized="1"
     inkscape:current-layer="g4163" /><g
     id="g4163"
     inkscape:groupmode="layer"
     inkscape:label="back"
     transform="matrix(1.25,0,0,-1.25,0,340)"><rect
       style="fill:#15356f;fill-opacity:1;stroke:none;stroke-opacity:1"
       id="rect4185"
       width="363.31003"
       height="0.57448089"
       x="-0.26075521"
       y="-244.37984"
       transform="scale(1,-1)" /></g></svg>